<?xml version="1.0" encoding="UTF-8" standalone="no"?>
<!-- Created with Inkscape (http://www.inkscape.org/) -->

<svg
   width="210mm"
   height="297mm"
   viewBox="0 0 210 297"
   version="1.1"
   id="svg1"
   xmlns:xlink="http://www.w3.org/1999/xlink"
   xmlns="http://www.w3.org/2000/svg"
   xmlns:svg="http://www.w3.org/2000/svg">
  <defs
     id="defs1" />
  <g
     id="layer1">
    <ellipse
       style="fill:#51c448;fill-opacity:1;stroke:#000000;stroke-width:1.581;stroke-dasharray:none;stroke-opacity:1"
       id="path1"
       cx="105.37331"
       cy="152.43613"
       rx="99.453468"
       ry="97.381523" />
    <path
       style="fill:#ffffff;fill-opacity:1;stroke:#ffffff;stroke-width:1.181;stroke-dasharray:none;stroke-opacity:1"
       id="path2"
       d="M 118.98898,98.861489 78.343395,105.33131 60.630477,142.48201 41.917139,105.82505 1.1111337,100.45926 30.191235,71.33419 22.684655,30.867253 59.370484,49.523932 95.537167,29.879779 89.130155,70.535307 Z"
       transform="matrix(0.35106366,0,0,-0.35106366,82.779176,106.22608)" />
    <path
       style="fill:#ffffff;fill-opacity:1;stroke:#ffffff;stroke-width:1.181;stroke-dasharray:none;stroke-opacity:1"
       d="m 49.931425,232.292 c 4.091124,-3.30086 37.461603,24.21307 41.474105,-138.200479 l 11.59293,-5.392063 12.69422,5.282529 c 1.06566,79.361923 10.77844,143.634303 44.55814,139.176013 -50.95764,28.23711 -89.0227,11.65611 -110.319395,-0.866 z"
       id="path3" />
    <path
       style="fill:#ffffff;fill-opacity:1;stroke:#ffffff;stroke-width:0.957331;stroke-dasharray:none;stroke-opacity:1"
       d="M 89.168332,135.62364 H 46.256547 l 45.170299,-27.34005 z"
       id="path4" />
    <path
       style="fill:#ffffff;fill-opacity:1;stroke:#ffffff;stroke-width:1.05321;stroke-dasharray:none;stroke-opacity:1"
       d="m 87.611345,159.35221 h -52.26523 l 55.01603,-27.16878 z"
       id="path5" />
    <path
       style="fill:#ffffff;fill-opacity:1;stroke:#ffffff;stroke-width:0.730363;stroke-dasharray:none;stroke-opacity:1"
       d="M 90.728047,111.91141 H 54.734048 L 92.622466,92.940024 Z"
       id="path6" />
    <path
       style="fill:#ffffff;fill-opacity:1;stroke:#ffffff;stroke-width:0.957331;stroke-dasharray:none;stroke-opacity:1"
       d="m 117.8531,135.62378 h 42.91179 l -45.1703,-27.34005 z"
       id="path7" />
    <path
       style="fill:#ffffff;fill-opacity:1;stroke:#ffffff;stroke-width:1.05321;stroke-dasharray:none;stroke-opacity:1"
       d="m 119.41009,159.35235 h 52.26523 l -55.01603,-27.16878 z"
       id="path8" />
    <path
       style="fill:#ffffff;fill-opacity:1;stroke:#ffffff;stroke-width:0.730363;stroke-dasharray:none;stroke-opacity:1"
       d="m 116.29339,111.91155 h 35.99399 L 114.39897,92.94017 Z"
       id="path9" />
    <path
       style="fill:#ffffff;fill-opacity:1;stroke:#ffffff;stroke-width:1.18346;stroke-dasharray:none;stroke-opacity:1"
       d="M 86.784894,184.6842 H 20.465068 l 69.810341,-27.03426 z"
       id="path10" />
    <path
       style="fill:#ffffff;fill-opacity:1;stroke:#ffffff;stroke-width:1.18346;stroke-dasharray:none;stroke-opacity:1"
       d="m 122.88137,184.6842 h 66.3202 l -69.81073,-27.03426 z"
       id="path11" />
    <text
       xml:space="preserve"
       id="text11"
       style="font-style:normal;font-variant:normal;font-weight:normal;font-stretch:normal;font-size:16.9333px;font-family:'Marker Felt';-inkscape-font-specification:'Marker Felt';text-align:start;writing-mode:lr-tb;direction:ltr;text-anchor:start;white-space:pre;shape-padding:3.62302;fill:#000000;fill-opacity:1;stroke:none;stroke-width:4.46362;stroke-dasharray:none;stroke-opacity:1"
       transform="rotate(8.0163117,77.08507,116.93432)"><textPath
         xlink:href="#path12"
         id="textPath12"> Babuska Park</textPath></text>
    <ellipse
       style="fill:none;fill-opacity:1;stroke:none;stroke-width:1.181;stroke-dasharray:none;stroke-opacity:1"
       id="path12"
       cx="-104.15439"
       cy="-48.698891"
       rx="53.361603"
       ry="19.171833"
       transform="rotate(178.15268)" />
  </g>
</svg>
